<svg width="180" height="190" viewBox="0 0 18 19" fill="rgb(40, 44, 52)" xmlns="http://www.w3.org/2000/svg">
    <path d="M10.7537 18.0376C11.4324 18.0376 11.8933 17.5097 12.2117 16.6969L17.7671 2.16736C17.9095 1.79868 17.985 1.47189 17.985 1.19537C17.985 0.558552 17.5828 0.15635 16.9459 0.15635C16.6694 0.15635 16.3426 0.231763 15.9739 0.374209L1.38574 5.95477C0.648368 6.23966 0.10372 6.70889 0.10372 7.38761C0.10372 8.20877 0.707023 8.53556 1.54494 8.78694L5.75969 10.0773C6.37975 10.2701 6.74844 10.2617 7.19253 9.85948L16.6191 1.17023C16.7448 1.0613 16.8873 1.06968 16.9795 1.16186C17.0716 1.24565 17.08 1.40485 16.9711 1.52216L8.30697 10.9572C7.9299 11.3677 7.88801 11.7867 8.07235 12.3984L9.33761 16.5377C9.59737 17.4008 9.92416 18.0376 10.7537 18.0376Z" fill="black"/>
</svg>
